<svg width="795" height="616" viewBox="0 0 795 616" fill="none" xmlns="http://www.w3.org/2000/svg">
<g id="bike" clip-path="url(#clip0_1_2)">
<g id="building">
<path id="Vector" d="M572.259 233.821C569.901 231.42 567.097 229.516 564.01 228.22C560.922 226.923 557.612 226.259 554.271 226.265V211.237C554.273 207.798 553.607 204.392 552.31 201.214C551.014 198.036 549.112 195.148 546.714 192.716C544.316 190.284 541.469 188.355 538.336 187.04C535.202 185.725 531.844 185.049 528.453 185.051V173.726H534.598C537.226 173.726 539.747 172.667 541.606 170.782C543.465 168.897 544.509 166.34 544.509 163.674C544.509 161.008 543.465 158.451 541.606 156.566C539.747 154.681 537.226 153.622 534.598 153.622H528.453V145.765H525.414V153.622H518.08C515.451 153.622 512.93 154.681 511.072 156.566C509.213 158.451 508.169 161.008 508.169 163.674C508.169 166.34 509.213 168.897 511.072 170.782C512.93 172.667 515.451 173.726 518.08 173.726H525.414V185.051H506.484C504.683 185.051 502.901 185.411 501.237 186.109C499.573 186.808 498.062 187.832 496.789 189.124C495.516 190.415 494.506 191.948 493.817 193.635C493.128 195.322 492.774 197.131 492.774 198.957V226.265H488.397C481.642 226.264 474.953 227.614 468.712 230.235C462.471 232.857 456.8 236.7 452.024 241.544C447.247 246.389 443.458 252.14 440.874 258.47C438.289 264.8 436.959 271.584 436.959 278.435V314.931C427.612 317.663 419.154 322.878 412.461 330.038C405.769 337.198 401.084 346.042 398.893 355.655H376.346V332.549H362.677V322.832H371.068C373.697 322.832 376.217 321.773 378.076 319.888C379.935 318.003 380.979 315.446 380.979 312.78C380.979 310.114 379.935 307.557 378.076 305.672C376.217 303.787 373.697 302.728 371.068 302.728H362.677V296.349H359.64V302.728H354.55C351.921 302.728 349.401 303.787 347.542 305.672C345.683 307.557 344.639 310.114 344.639 312.78C344.639 315.446 345.683 318.003 347.542 319.888C349.401 321.773 351.921 322.832 354.55 322.832H359.64V332.59C356.15 332.795 352.869 334.345 350.469 336.924C348.069 339.502 346.732 342.912 346.73 346.458V355.738C333.599 356.475 321.245 362.285 312.206 371.973C303.167 381.662 298.129 394.494 298.129 407.832V621.378H436.959V621.379H579.709V252.065C579.715 248.676 579.06 245.319 577.782 242.188C576.503 239.057 574.626 236.213 572.259 233.821V233.821Z" fill="url(#paint0_linear_1_2)"/>
<path id="Vector_2" d="M285.159 226.26V211.241C285.159 207.802 284.491 204.396 283.194 201.219C281.896 198.042 279.994 195.155 277.597 192.723C275.199 190.292 272.353 188.363 269.22 187.047C266.088 185.731 262.73 185.053 259.34 185.053V185.053V170.375H265.352C267.98 170.375 270.501 169.316 272.36 167.431C274.218 165.546 275.263 162.989 275.263 160.323C275.263 157.657 274.218 155.101 272.36 153.215C270.501 151.33 267.98 150.271 265.352 150.271H259.34V145.773H256.302V150.271H248.834C246.205 150.271 243.684 151.33 241.826 153.215C239.967 155.101 238.923 157.657 238.923 160.323C238.923 162.989 239.967 165.546 241.826 167.431C243.684 169.316 246.205 170.375 248.834 170.375H256.302V185.053H237.362C235.561 185.053 233.778 185.413 232.114 186.112C230.45 186.811 228.939 187.836 227.665 189.127C226.392 190.419 225.381 191.952 224.692 193.64C224.003 195.327 223.648 197.136 223.648 198.963V226.26H219.277C205.634 226.26 192.548 231.757 182.901 241.542C173.253 251.327 167.833 264.599 167.833 278.437V312.244C159.187 316.023 151.651 322.007 145.96 329.614C140.27 337.221 136.617 346.192 135.357 355.655H107.228V332.549H93.5591V319.481H98.5184C101.147 319.481 103.668 318.422 105.526 316.537C107.385 314.652 108.429 312.095 108.429 309.429C108.429 306.763 107.385 304.207 105.526 302.321C103.668 300.436 101.147 299.377 98.5184 299.377H93.5591V296.349H90.5215V299.377H82.0002C79.3717 299.377 76.8508 300.436 74.9922 302.321C73.1335 304.207 72.0893 306.763 72.0893 309.429C72.0893 312.095 73.1335 314.652 74.9922 316.537C76.8508 318.422 79.3717 319.481 82.0002 319.481H90.5215V332.59C87.0315 332.795 83.7509 334.346 81.351 336.924C78.9511 339.502 77.6135 342.912 77.6118 346.458V355.738C64.4807 356.475 52.1265 362.285 43.0875 371.973C34.0486 381.662 29.0113 394.494 29.0107 407.832V621.378H310.599V252.062C310.599 248.673 309.941 245.318 308.662 242.188C307.384 239.057 305.51 236.213 303.148 233.817C300.785 231.421 297.981 229.52 294.894 228.224C291.808 226.927 288.5 226.26 285.159 226.26V226.26Z" fill="url(#paint1_linear_1_2)"/>
<path id="Vector_3" d="M98.1154 448.08H117.1V432.676H98.1154V448.08Z" fill="white"/>
<path id="Vector_4" d="M66.9803 448.08H85.9651V432.676H66.9803V448.08Z" fill="white"/>
<path id="Vector_5" d="M98.1154 487.361H117.1V471.957H98.1154V487.361Z" fill="white"/>
<path id="Vector_6" d="M66.9803 487.361H85.9651V471.957H66.9803V487.361Z" fill="white"/>
<path id="Vector_7" d="M98.1154 526.642H117.1V511.238H98.1154V526.642Z" fill="white"/>
<path id="Vector_8" d="M66.9803 526.642H85.9651V511.238H66.9803V526.642Z" fill="white"/>
<path id="Vector_9" d="M66.9803 565.923H85.9651V550.518H66.9803V565.923Z" fill="white"/>
<path id="Vector_10" d="M66.9803 605.204H85.9651V589.799H66.9803V605.204Z" fill="white"/>
<path id="Vector_11" d="M208.461 404.564H269.971V399.942H208.461V404.564Z" fill="white"/>
<path id="Vector_12" d="M208.461 433.061H269.971V428.44H208.461V433.061Z" fill="white"/>
<path id="Vector_13" d="M208.461 461.559H269.971V456.938H208.461V461.559Z" fill="white"/>
<path id="Vector_14" d="M244.911 208.93H263.896V193.526H244.911V208.93Z" fill="white"/>
<path id="Vector_15" d="M367.233 487.361H386.218V471.957H367.233V487.361Z" fill="white"/>
<path id="Vector_16" d="M336.098 487.361H355.083V471.957H336.098V487.361Z" fill="white"/>
<path id="Vector_17" d="M367.233 526.642H386.218V511.238H367.233V526.642Z" fill="white"/>
<path id="Vector_18" d="M336.098 526.642H355.083V511.238H336.098V526.642Z" fill="white"/>
<path id="Vector_19" d="M367.233 565.923H386.218V550.518H367.233V565.923Z" fill="white"/>
<path id="Vector_20" d="M336.098 565.923H355.083V550.518H336.098V565.923Z" fill="white"/>
<path id="Vector_21" d="M367.233 605.204H386.218V589.799H367.233V605.204Z" fill="white"/>
<path id="Vector_22" d="M336.098 605.204H355.083V589.799H336.098V605.204Z" fill="white"/>
<path id="Vector_23" d="M514.029 208.93H533.014V193.526H514.029V208.93Z" fill="white"/>
<path id="Vector_24" d="M579.709 259.169H532.946V269.221H579.709V259.169Z" fill="white"/>
<path id="Vector_25" d="M579.709 289.325H532.946V299.377H579.709V289.325Z" fill="white"/>
<path id="Vector_26" d="M579.709 319.481H532.946V329.534H579.709V319.481Z" fill="white"/>
<path id="Vector_27" d="M579.709 349.638H532.946V359.69H579.709V349.638Z" fill="white"/>
<path id="Vector_28" d="M579.709 379.794H532.946V389.846H579.709V379.794Z" fill="white"/>
<path id="Vector_29" d="M579.709 409.95H532.946V420.002H579.709V409.95Z" fill="white"/>
</g>
<g id="leaf">
<path id="Vector_30" d="M754.18 551.395L755.324 525.676C767.248 519.302 780.548 515.935 794.069 515.868C775.46 531.082 777.786 560.409 765.17 580.867C761.186 587.218 755.824 592.591 749.482 596.588C743.139 600.585 735.978 603.103 728.53 603.957L712.958 613.491C710.821 601.579 711.292 589.345 714.339 577.633C717.385 565.92 722.935 555.007 730.605 545.646C734.96 540.437 739.954 535.797 745.468 531.836C749.198 541.67 754.18 551.395 754.18 551.395Z" fill="#2FCF3F"/>
</g>
<g id="cloud">
<path id="Vector_31" d="M664.862 184.506C679.609 184.506 691.563 172.551 691.563 157.805C691.563 143.059 679.609 131.104 664.862 131.104C650.116 131.104 638.161 143.059 638.161 157.805C638.161 172.551 650.116 184.506 664.862 184.506Z" fill="#FD6584"/>
<path id="Vector_32" d="M724.625 145.163C723.87 142.693 722.409 140.498 720.423 138.848C718.437 137.197 716.012 136.163 713.445 135.872C713.387 135.864 713.332 135.875 713.275 135.871C713.2 135.849 713.124 135.831 713.047 135.819C700.836 134.241 686.741 140.081 681.652 151.657C680.41 149.964 678.775 148.599 676.888 147.679C675 146.759 672.917 146.313 670.819 146.378C668.113 146.558 665.528 147.568 663.416 149.27C661.305 150.972 659.769 153.283 659.018 155.889C658.938 156.208 658.962 156.544 659.086 156.849C659.21 157.154 659.428 157.411 659.708 157.583C660.514 158.267 661.47 158.752 662.497 158.999C664.715 159.469 666.94 159.899 669.174 160.29C673.531 161.053 677.912 161.67 682.316 162.14C691.254 163.098 700.248 163.438 709.234 163.158C712.226 163.064 715.112 162.965 717.854 161.644C719.849 160.659 721.553 159.172 722.799 157.329C723.974 155.557 724.746 153.55 725.061 151.448C725.376 149.347 725.227 147.201 724.625 145.163V145.163Z" fill="#53CBFF"/>
<path id="Vector_33" d="M669.129 180.764C668.374 178.294 666.914 176.099 664.927 174.449C662.941 172.798 660.516 171.764 657.95 171.473C657.892 171.465 657.837 171.476 657.779 171.472C657.704 171.45 657.628 171.432 657.551 171.42C645.34 169.842 631.245 175.682 626.156 187.258C624.914 185.565 623.279 184.199 621.392 183.28C619.504 182.36 617.421 181.913 615.323 181.979C612.617 182.159 610.032 183.169 607.921 184.871C605.809 186.573 604.273 188.884 603.523 191.49C603.443 191.809 603.466 192.145 603.59 192.45C603.714 192.755 603.932 193.012 604.212 193.184C605.018 193.868 605.974 194.353 607.002 194.6C609.219 195.07 611.445 195.5 613.678 195.891C618.036 196.654 622.416 197.271 626.82 197.741C635.759 198.699 644.753 199.039 653.738 198.759C656.731 198.665 659.616 198.566 662.359 197.245C664.353 196.26 666.058 194.773 667.304 192.93C668.478 191.158 669.25 189.151 669.565 187.049C669.88 184.947 669.732 182.802 669.129 180.764V180.764Z" fill="#53CBFF"/>
</g>
<g id="left-wheel">
<path id="Vector_34" d="M152 615C130.64 615 109.759 608.666 91.9985 596.799C74.2379 584.932 60.3953 568.064 52.2211 548.33C44.0468 528.595 41.908 506.88 46.0752 485.93C50.2424 464.98 60.5285 445.737 75.6325 430.632C90.7366 415.528 109.98 405.242 130.93 401.075C151.88 396.908 173.595 399.047 193.33 407.221C213.064 415.395 229.932 429.238 241.799 446.998C253.666 464.759 260 485.64 260 507C259.968 535.634 248.579 563.085 228.332 583.332C208.085 603.579 180.634 614.968 152 615V615ZM152 409C132.617 409 113.67 414.748 97.5542 425.516C81.4381 436.284 68.8772 451.59 61.4599 469.497C54.0425 487.404 52.1017 507.109 55.8831 526.119C59.6645 545.129 68.9981 562.591 82.7036 576.296C96.4091 590.002 113.871 599.336 132.881 603.117C151.891 606.898 171.596 604.958 189.503 597.54C207.41 590.123 222.716 577.562 233.484 561.446C244.252 545.33 250 526.383 250 507C249.971 481.018 239.636 456.108 221.264 437.736C202.892 419.364 177.982 409.029 152 409V409Z" fill="black"/>
<path id="Vector_35" d="M152.248 523.12C161.085 523.12 168.248 515.957 168.248 507.12C168.248 498.283 161.085 491.12 152.248 491.12C143.412 491.12 136.248 498.283 136.248 507.12C136.248 515.957 143.412 523.12 152.248 523.12Z" fill="#3F3D56"/>
<path id="Vector_36" d="M212.88 512.466L197.414 497L196 498.414L211.466 513.88L212.88 512.466Z" fill="#3F3D56"/>
<path id="Vector_37" d="M219.682 505.268L204.414 490L203 491.414L218.268 506.682L219.682 505.268Z" fill="#3F3D56"/>
<path id="Vector_38" d="M102.88 536.466L87.4142 521L86 522.414L101.466 537.88L102.88 536.466Z" fill="#3F3D56"/>
<path id="Vector_39" d="M109.682 529.268L94.4142 514L93 515.414L108.268 530.682L109.682 529.268Z" fill="#3F3D56"/>
</g>
<g id="right-wheel">
<path id="Vector_40" d="M625.98 621.959C603.437 621.959 581.4 615.275 562.656 602.75C543.912 590.226 529.303 572.425 520.676 551.598C512.049 530.771 509.792 507.853 514.19 485.743C518.588 463.634 529.444 443.324 545.384 427.384C561.324 411.444 581.634 400.588 603.743 396.19C625.853 391.792 648.771 394.049 669.598 402.676C690.425 411.303 708.226 425.912 720.75 444.656C733.275 463.4 739.959 485.437 739.959 507.98C739.925 538.199 727.906 567.17 706.538 588.538C685.17 609.906 656.199 621.925 625.98 621.959ZM625.98 404.554C605.524 404.554 585.528 410.62 568.519 421.984C551.511 433.349 538.255 449.502 530.427 468.4C522.599 487.299 520.55 508.095 524.541 528.157C528.532 548.22 538.382 566.649 552.846 581.113C567.311 595.577 585.74 605.428 605.802 609.418C625.865 613.409 646.661 611.361 665.559 603.533C684.458 595.705 700.611 582.448 711.975 565.44C723.34 548.432 729.406 528.435 729.406 507.98C729.375 480.559 718.468 454.27 699.079 434.881C679.689 415.491 653.4 404.585 625.98 404.554V404.554Z" fill="black"/>
<path id="Vector_41" d="M625.709 523.567C634.546 523.567 641.709 516.403 641.709 507.567C641.709 498.73 634.546 491.567 625.709 491.567C616.872 491.567 609.709 498.73 609.709 507.567C609.709 516.403 616.872 523.567 625.709 523.567Z" fill="#3F3D56"/>
<path id="Vector_42" d="M677.88 484.466L662.414 469L661 470.414L676.466 485.88L677.88 484.466Z" fill="#3F3D56"/>
<path id="Vector_43" d="M684.682 477.268L669.414 462L668 463.414L683.268 478.682L684.682 477.268Z" fill="#3F3D56"/>
<path id="Vector_44" d="M566.88 538.466L551.414 523L550 524.414L565.466 539.88L566.88 538.466Z" fill="#3F3D56"/>
<path id="Vector_45" d="M573.682 531.268L558.414 516L557 517.414L572.268 532.682L573.682 531.268Z" fill="#3F3D56"/>
</g>
<g id="man">
<path id="Vector_46" d="M309.242 462.575L319.986 471.566L360.55 433.48L344.693 420.211L309.242 462.575Z" fill="#FFB6B6"/>
<path id="Vector_47" d="M341.028 459.534L318.275 443.829L378.183 348.848C334.763 323.61 304.902 292.823 280.538 259.005C272.258 247.592 267.21 234.309 278.762 225.747C279.302 225.347 279.856 224.968 280.425 224.61C293.597 216.402 289.321 228.703 307.376 222.662L323.69 240.065L358.937 274.361L419.058 312.739C431.149 320.457 434.504 336.691 426.552 348.999C426.132 349.649 425.684 350.28 425.21 350.893L341.028 459.534Z" fill="#2F2E41"/>
<path id="Vector_48" d="M310.603 455.252L329.441 469.196L323.008 476.883L330.207 502.939C330.562 504.226 330.497 505.593 330.021 506.841C329.545 508.088 328.683 509.15 327.56 509.873C326.437 510.595 325.113 510.94 323.78 510.857C322.448 510.773 321.177 510.266 320.153 509.409L298.792 491.533L301.474 480.848L293.673 487.248L285.619 480.508L310.603 455.252Z" fill="#2F2E41"/>
<path id="Vector_49" d="M284.311 360.348L168.115 401.9L171.483 411.316L287.678 369.764L284.311 360.348Z" fill="#3F3D56"/>
<path id="Vector_50" d="M311.485 521.085L281.209 494.943C279.102 493.123 277.805 490.541 277.602 487.764C277.399 484.987 278.307 482.244 280.127 480.136C281.946 478.029 284.528 476.731 287.305 476.527C290.081 476.323 292.825 477.23 294.933 479.048L325.209 505.19C326.253 506.091 327.11 507.189 327.73 508.421C328.35 509.653 328.721 510.995 328.822 512.371C328.923 513.746 328.752 515.128 328.319 516.437C327.886 517.747 327.199 518.958 326.297 520.002C325.396 521.046 324.298 521.902 323.065 522.522C321.833 523.141 320.491 523.511 319.115 523.612C317.74 523.713 316.358 523.541 315.049 523.107C313.739 522.674 312.528 521.987 311.485 521.085V521.085Z" fill="#3F3D56"/>
<path id="Vector_51" d="M483.47 219.067C481.556 219.727 479.522 219.959 477.509 219.748C475.496 219.536 473.554 218.886 471.819 217.843C470.085 216.8 468.601 215.389 467.47 213.71C466.34 212.031 465.592 210.124 465.278 208.125L357.124 180.275L374.762 161.768L477.773 192.015C481.167 191.711 484.555 192.662 487.294 194.689C490.034 196.715 491.935 199.676 492.637 203.011C493.339 206.345 492.794 209.822 491.104 212.781C489.415 215.74 486.698 217.977 483.47 219.067H483.47Z" fill="#FFB6B6"/>
<path id="Vector_52" d="M319.168 89.7592C319.168 89.7592 301.582 91.7967 301.898 112.062C302.214 132.327 345.322 178.492 352.048 186.141C358.773 193.79 425.892 197.698 425.892 197.698L446.859 179.262L384.69 158.316L319.168 89.7592Z" fill="#FF207E"/>
<path id="Vector_53" d="M283.496 184.877L279.529 203.485C279.529 203.485 272.308 218.972 273.71 223.11C275.098 227.225 337.592 249.595 337.592 249.595C337.592 249.595 342.947 221.692 351.881 202.87L283.496 184.877Z" fill="#FFB6B6"/>
<path id="Vector_54" d="M483.782 475.919L447.689 493.163C445.177 494.363 442.29 494.516 439.664 493.588C437.039 492.66 434.889 490.727 433.689 488.215C432.488 485.702 432.335 482.815 433.263 480.19C434.191 477.564 436.124 475.415 438.636 474.214L474.729 456.971C477.242 455.77 480.128 455.617 482.754 456.545C485.38 457.473 487.529 459.406 488.729 461.918C489.93 464.431 490.083 467.318 489.155 469.943C488.227 472.569 486.294 474.719 483.782 475.919V475.919Z" fill="#3F3D56"/>
<path id="Vector_55" d="M369.248 523.673C379.495 523.673 387.802 515.367 387.802 505.12C387.802 494.873 379.495 486.567 369.248 486.567C359.002 486.567 350.695 494.873 350.695 505.12C350.695 515.367 359.002 523.673 369.248 523.673Z" fill="#3F3D56"/>
<path id="Vector_56" d="M353.492 499.678H255.219V509.678H353.492V499.678Z" fill="#3F3D56"/>
<path id="Vector_57" d="M287.022 312.334H277.022V364.617H287.022V312.334Z" fill="#3F3D56"/>
<path id="Vector_58" d="M481.467 194.03L471.951 197.103L504.574 298.124L514.09 295.051L481.467 194.03Z" fill="#3F3D56"/>
<path id="Vector_59" d="M286.024 358.039L277.394 363.094L359.394 503.094L368.024 498.039L286.024 358.039Z" fill="#3F3D56"/>
<path id="Vector_60" d="M555.888 378.43L379.896 498.442L385.53 506.703L561.522 386.692L555.888 378.43Z" fill="#3F3D56"/>
<path id="Vector_61" d="M301.209 318.567H261.209C258.424 318.567 255.754 317.46 253.784 315.491C251.815 313.522 250.709 310.851 250.709 308.067C250.709 305.282 251.815 302.611 253.784 300.642C255.754 298.673 258.424 297.567 261.209 297.567H301.209C303.994 297.567 306.665 298.673 308.634 300.642C310.603 302.611 311.709 305.282 311.709 308.067C311.709 310.851 310.603 313.522 308.634 315.491C306.665 317.46 303.994 318.567 301.209 318.567V318.567Z" fill="#6C63FF"/>
<path id="Vector_62" d="M496.209 205.567H456.209C453.424 205.567 450.754 204.46 448.784 202.491C446.815 200.522 445.709 197.851 445.709 195.067C445.709 192.282 446.815 189.611 448.784 187.642C450.754 185.673 453.424 184.567 456.209 184.567H496.209C498.994 184.567 501.665 185.673 503.634 187.642C505.603 189.611 506.709 192.282 506.709 195.067C506.709 197.851 505.603 200.522 503.634 202.491C501.665 204.46 498.994 205.567 496.209 205.567Z" fill="#6C63FF"/>
<path id="Vector_63" d="M347.808 74.8749C363.907 72.1379 374.739 56.8684 372.002 40.7696C369.265 24.6708 353.995 13.8389 337.896 16.5759C321.797 19.3129 310.966 34.5823 313.702 50.6811C316.439 66.78 331.709 77.6119 347.808 74.8749Z" fill="#FFB6B6"/>
<path id="Vector_64" d="M525.869 328.593L492.475 258.103L492.927 257.889C495.241 256.792 497.749 256.163 500.306 256.035C502.864 255.908 505.422 256.286 507.833 257.147C510.245 258.008 512.463 259.336 514.362 261.054C516.26 262.773 517.801 264.849 518.898 267.163L535.594 302.408C536.691 304.723 537.321 307.23 537.448 309.788C537.575 312.345 537.198 314.903 536.336 317.314C535.475 319.726 534.147 321.944 532.429 323.843C530.71 325.741 528.635 327.282 526.32 328.379L525.869 328.593Z" fill="#3F3D56"/>
<path id="Vector_65" d="M423.791 340.983C419.586 340.971 415.498 339.604 412.133 337.083C408.769 334.563 406.307 331.023 405.115 326.992L404.973 326.512L479.785 304.439L479.926 304.918C480.651 307.374 480.885 309.949 480.615 312.496C480.344 315.042 479.575 317.51 478.351 319.759C477.126 322.009 475.471 323.995 473.479 325.604C471.487 327.213 469.198 328.415 466.742 329.139L429.336 340.176C427.536 340.709 425.668 340.981 423.791 340.983V340.983Z" fill="#3F3D56"/>
<path id="Vector_66" d="M433.406 462.464L447.019 459.106L440.726 403.809L420.634 408.767L433.406 462.464Z" fill="#FFB6B6"/>
<path id="Vector_67" d="M426.959 446.596L448.204 436.697L451.888 446.02L478.221 452.13C479.522 452.432 480.692 453.141 481.561 454.155C482.429 455.169 482.951 456.434 483.05 457.765C483.149 459.097 482.82 460.425 482.111 461.556C481.402 462.687 480.349 463.562 479.108 464.053L453.204 474.291L445.094 466.835L446.995 476.745L437.229 480.605L426.959 446.596Z" fill="#2F2E41"/>
<path id="Vector_68" d="M447.782 412.637L418.756 430.043L387.798 320.712C337.578 320.283 291.143 314.66 253.23 297.342C240.385 291.526 234.672 276.144 240.468 262.986C240.739 262.371 241.033 261.767 241.35 261.175C248.73 247.522 263.038 239.504 275.733 225.315L338.709 248.567L334.196 265.525L405.433 269.101C419.759 269.82 430.712 282.264 429.897 296.894C429.854 297.667 429.778 298.437 429.669 299.204L447.782 412.637Z" fill="#2F2E41"/>
<path id="Vector_69" d="M324.641 74.5894L343.994 84.7086C345.063 85.1353 345.972 85.885 346.595 86.853C347.218 87.8211 347.523 88.9594 347.469 90.1093L352.51 110.281L370.247 147.825C370.247 147.825 374.869 167.806 366.049 186.671C357.229 205.537 337.709 252.567 337.709 252.567C324.978 283.06 220.476 259.512 247.709 233.567C250.949 230.479 269.162 204.403 275.826 202.904L292.176 109.339C293 104.399 294.907 99.7024 297.761 95.5864C300.614 91.4704 304.342 88.0368 308.679 85.5317C311.299 84.0508 313.727 83.174 315.392 83.6215C319.185 84.5055 320.978 75.9146 324.641 74.5894Z" fill="#FF207E"/>
<path id="Vector_70" d="M492.72 198.566C490.96 199.566 489.003 200.167 486.985 200.329C484.968 200.49 482.939 200.207 481.043 199.5C479.147 198.793 477.429 197.678 476.01 196.235C474.591 194.792 473.505 193.055 472.83 191.147L361.402 183.611L375.346 162.182L482.157 173.018C485.438 172.097 488.943 172.41 492.008 173.9C495.072 175.389 497.484 177.951 498.786 181.1C500.088 184.25 500.19 187.767 499.072 190.986C497.954 194.205 495.694 196.902 492.72 198.566V198.566Z" fill="#FFB6B6"/>
<path id="Vector_71" d="M307.484 101.595C307.484 101.595 290.571 106.824 294.599 126.687C298.628 146.551 349.474 184.024 357.489 190.309C365.503 196.594 432.2 188.122 432.2 188.122L449.428 166.153L384.472 156.968L307.484 101.595Z" fill="#FF207E"/>
<path id="Vector_72" d="M534.367 303.522C540.324 301.319 542.437 292.185 539.086 283.12C535.734 274.054 528.188 268.491 522.231 270.693C516.274 272.895 514.161 282.029 517.512 291.095C520.864 300.16 528.41 305.724 534.367 303.522Z" fill="#6C63FF"/>
<path id="Vector_73" d="M156.357 505.986L149.061 499.147L279.296 360.214L511.708 290.657L627.053 493.091L618.365 498.042L506.957 302.518L284.748 369.021L156.357 505.986Z" fill="#3F3D56"/>
</g>
<g id="hat">
<path id="Vector_74" d="M374.391 35.9436C369.926 38.143 364.87 34.9553 360.964 31.7852L362.362 32.9677C355.584 39.6989 352.482 49.3148 351.015 58.7644C349.546 68.2041 349.471 77.8431 347.596 87.22C345.719 96.587 341.724 106.02 334.139 111.824C323.979 119.597 309.851 119.25 297.26 117.028C297.092 116.996 296.936 116.972 296.768 116.94C300.049 107.142 301.317 96.7833 300.496 86.4839C297.234 96.8471 291.597 106.305 284.033 114.104C275.678 111.897 267.515 109.017 259.624 105.493C254.519 103.207 249.014 100.065 247.548 94.6642C246.079 89.3046 249.304 83.6338 253.66 80.1952C258.015 76.7566 263.385 74.9307 268.361 72.4617C273.33 70.0041 278.236 66.5227 280.182 61.3229C284.67 49.3614 271.394 35.8252 276.393 24.0609C278.858 18.2758 285.009 15.0796 290.796 12.6047C299.631 8.83627 308.71 5.6694 317.972 3.12573C326.103 0.891348 334.598 -0.867411 342.918 0.456889C351.237 1.78118 359.426 6.74895 362.496 14.6055C367.501 16.2398 372.815 18.0852 376.059 22.2503C379.302 26.4056 379.118 33.6184 374.391 35.9436Z" fill="#2F2E41"/>
</g>
</g>
<defs>
<linearGradient id="paint0_linear_1_2" x1="580" y1="129.775" x2="306.653" y2="618.414" gradientUnits="userSpaceOnUse">
<stop stop-color="#00FFC2"/>
<stop offset="1" stop-color="#FFD600" stop-opacity="0"/>
</linearGradient>
<linearGradient id="paint1_linear_1_2" x1="289" y1="604.443" x2="166.84" y2="173.777" gradientUnits="userSpaceOnUse">
<stop offset="0.0636829" stop-color="#00FFC2"/>
<stop offset="1" stop-color="#FFD600" stop-opacity="0"/>
</linearGradient>
<clipPath id="clip0_1_2">
<rect width="794.67" height="615.311" fill="white"/>
</clipPath>
</defs>
</svg>
