<svg width="906" height="750" viewBox="0 0 906 750" fill="none" xmlns="http://www.w3.org/2000/svg">
<g id="watch" clip-path="url(#clip0_0_3)">
<g id="man">
<path id="Vector" d="M618.136 265.696C635.388 265.696 649.374 251.71 649.374 234.458C649.374 217.206 635.388 203.221 618.136 203.221C600.884 203.221 586.899 217.206 586.899 234.458C586.899 251.71 600.884 265.696 618.136 265.696Z" fill="#2F2E41"/>
<path id="Vector_2" d="M565.584 430.283C565.584 430.283 590.524 493.29 593.149 493.29C595.774 493.29 599.712 469.662 599.712 469.662L583.96 425.033L565.584 430.283Z" fill="#FFB9B9"/>
<path id="Vector_3" d="M602.337 258.328C602.337 258.328 608.9 285.894 606.275 291.144C603.65 296.395 611.526 304.271 611.526 304.271H629.903L643.029 283.268L645.654 274.08C645.654 274.08 637.778 253.078 639.091 250.453C640.404 247.827 602.337 258.328 602.337 258.328Z" fill="#FFB9B9"/>
<path id="Vector_4" opacity="0.1" d="M602.337 258.328C602.337 258.328 608.9 285.894 606.275 291.144C603.65 296.395 611.526 304.271 611.526 304.271H629.903L643.029 283.268L645.654 274.08C645.654 274.08 637.778 253.078 639.091 250.453C640.404 247.827 602.337 258.328 602.337 258.328Z" fill="black"/>
<path id="Vector_5" d="M675.845 704.624V719.063L692.909 723.001L694.222 704.624H675.845Z" fill="#575A89"/>
<path id="Vector_6" d="M606.275 446.035C606.275 446.035 587.898 478.851 594.461 495.915C601.025 512.979 625.965 596.988 625.965 596.988C625.965 596.988 640.404 644.243 640.404 646.868C640.404 649.493 652.217 707.249 656.155 708.562C660.093 709.874 695.534 713.812 696.847 709.874C698.16 705.936 699.472 684.934 695.534 680.996C691.596 677.058 670.594 554.984 670.594 554.984L667.969 514.292L700.785 615.365C700.785 615.365 709.973 675.746 713.911 679.684C717.849 683.622 706.035 687.56 709.973 691.497C713.911 695.435 728.35 705.936 727.037 709.874C725.725 713.812 758.541 713.812 762.479 711.187C766.417 708.562 765.104 667.87 765.104 667.87L746.727 612.739L725.725 478.851C725.725 478.851 719.162 439.472 713.911 439.472C708.661 439.472 606.275 446.035 606.275 446.035Z" fill="#2F2E41"/>
<path id="Vector_7" d="M679.783 713.812C679.783 713.812 669.282 704.624 664.031 707.249C658.781 709.874 641.716 734.814 636.466 733.502C631.215 732.189 623.339 747.628 636.466 748.941C649.592 750.253 670.594 747.628 670.594 747.628C674.937 748.35 679.321 748.789 683.72 748.941C688.971 748.941 700.785 750.253 700.785 748.941C700.785 747.628 698.159 717.75 696.847 717.75C695.534 717.75 681.095 717.75 679.783 713.812Z" fill="#575A89"/>
<path id="Vector_8" d="M751.977 704.624C751.977 704.624 738.851 701.998 737.539 704.624C736.226 707.249 730.975 715.125 730.975 716.437C730.975 717.75 733.601 733.502 733.601 734.814C733.601 736.127 736.226 740.065 738.851 742.69C739.593 743.317 740.119 744.161 740.354 745.104C740.59 746.046 740.523 747.038 740.164 747.941C740.164 747.941 774.292 751.879 774.292 746.628C774.292 741.377 770.354 729.564 767.729 726.939C765.104 724.313 759.853 705.936 751.977 704.624Z" fill="#575A89"/>
<path id="Vector_9" d="M618.089 270.142C633.313 270.142 645.654 257.801 645.654 242.577C645.654 227.353 633.313 215.012 618.089 215.012C602.865 215.012 590.524 227.353 590.524 242.577C590.524 257.801 602.865 270.142 618.089 270.142Z" fill="#FFB9B9"/>
<path id="Vector_10" d="M607.588 292.457C607.588 292.457 623.339 301.645 632.528 287.206C641.716 272.767 670.594 316.084 670.594 316.084L678.47 449.973C678.47 449.973 664.031 451.286 639.091 457.849C614.151 464.412 602.337 448.66 602.337 448.66L601.025 372.528L603.65 337.086L599.712 308.209L602.337 291.144L607.588 292.457Z" fill="#00D98B"/>
<path id="Vector_11" d="M578.71 309.521C578.71 309.521 568.209 312.146 565.584 330.523C562.958 348.9 557.708 404.031 557.708 404.031L564.271 436.847C564.271 436.847 582.648 422.408 589.211 428.971L585.273 409.281L589.211 397.468L577.397 346.275L578.71 309.521Z" fill="#00D98B"/>
<path id="Vector_12" d="M604.817 270.142C604.817 270.142 602.337 270.142 602.337 279.331C602.337 288.519 577.397 301.645 577.397 301.645C577.397 301.645 574.772 305.583 574.772 316.084C574.772 326.585 574.772 351.525 577.397 359.401C580.023 367.277 583.96 393.53 585.273 396.155C586.586 398.78 586.586 410.594 583.96 413.219C581.335 415.844 590.524 431.596 593.149 432.909C595.774 434.221 583.96 468.35 590.524 469.662C597.087 470.975 608.9 453.911 612.838 444.722C616.776 435.534 614.151 308.209 612.838 299.02C611.526 289.832 604.817 270.142 604.817 270.142Z" fill="#575A89"/>
<path id="Vector_13" d="M641.386 261.695C641.386 261.695 640.404 255.703 646.967 260.954C653.53 266.204 654.843 270.142 654.843 270.142C654.843 270.142 688.971 270.142 690.284 274.08C691.596 278.018 689.501 311.53 689.501 311.53L706.751 375.665C706.751 375.665 730.975 449.973 733.601 452.598C736.226 455.223 712.599 440.784 699.472 451.286C686.346 461.787 662.718 467.037 660.093 460.474C657.468 453.911 628.59 301.645 628.59 301.645C628.59 301.645 628.59 276.705 632.528 274.08C636.466 271.455 641.386 261.695 641.386 261.695Z" fill="#575A89"/>
<path id="Vector_14" d="M711.286 385.654L706.035 446.035L704.723 451.286L724.412 477.538C724.412 477.538 728.35 463.099 727.037 457.849C725.725 452.598 733.601 393.53 733.601 393.53L711.286 385.654Z" fill="#FFB9B9"/>
<path id="Vector_15" d="M596.506 222.982C596.506 222.982 590.128 206.4 599.376 200.979L601.927 208.313C601.927 208.313 625.205 194.283 631.264 197.471L625.524 205.125C625.524 205.125 652.629 205.125 654.542 215.648L644.976 215.967C644.976 215.967 655.18 222.663 655.499 233.505L635.09 234.78L644.976 240.52C644.976 240.52 607.986 245.622 599.057 230.954L596.506 222.982Z" fill="#2F2E41"/>
<path id="Vector_16" d="M590.982 223.637C590.982 223.637 598.332 238.337 608.132 234.662C617.932 230.987 608.132 217.512 608.132 217.512L601.599 214.246L590.982 223.637Z" fill="#2F2E41"/>
<path id="Vector_17" d="M827 748.5H541V749.5H827V748.5Z" fill="black"/>
<path id="Vector_18" d="M687.658 276.705C687.658 276.705 695.534 278.018 700.785 287.206C706.035 296.395 732.288 356.776 733.601 359.401C734.913 362.026 734.913 397.468 734.913 397.468C734.913 397.468 716.536 386.967 708.661 393.53L707.348 377.778L690.284 317.397L687.659 297.707L687.658 276.705Z" fill="#00D98B"/>
</g>
<g id="watch_2">
<path id="Vector_19" d="M325.709 222.811L148.992 417.621C158.636 438.579 173.19 456.904 191.421 471.042L381.776 258.584C366.157 242.421 346.949 230.166 325.709 222.811V222.811Z" fill="#F2F2F2"/>
<path id="Vector_20" d="M325 224.913V111H232V224.561C262.181 214.36 294.897 214.484 325 224.913Z" fill="#00D98B"/>
<path id="Vector_21" d="M232 497.352V613.914H325V497C294.897 507.429 262.181 507.553 232 497.352V497.352Z" fill="#00D98B"/>
<path id="Vector_22" d="M178 357C178 383.787 188.641 409.477 207.582 428.418C226.523 447.359 252.213 458 279 458V256C252.213 256 226.523 266.641 207.582 285.582C188.641 304.523 178 330.213 178 357V357Z" fill="#00D1FF"/>
<path id="Vector_23" d="M279 256V458C305.787 458 331.477 447.359 350.418 428.418C369.359 409.477 380 383.787 380 357C380 330.213 369.359 304.523 350.418 285.582C331.477 266.641 305.787 256 279 256V256Z" fill="#00D98B"/>
<path id="Vector_24" d="M427.5 369C425.185 369 424.25 367.409 423.066 365.395C422.771 364.892 422.45 364.347 422.079 363.77L422.921 363.229C423.3 363.818 423.627 364.375 423.929 364.889C425.107 366.895 425.757 368 427.5 368C433.29 368 438 358.355 438 346.5C438 334.645 433.29 325 427.5 325C424.157 325 421.833 327.062 419.964 331.687L419.036 331.312C421.08 326.255 423.69 324 427.5 324C433.841 324 439 334.093 439 346.5C439 358.907 433.841 369 427.5 369Z" fill="black"/>
</g>
<g id="item">
<path id="Vector_25" d="M675.421 719.042C704.004 741.19 739.916 751.687 775.928 748.419C811.94 745.151 845.376 728.362 869.506 701.431C893.635 674.499 906.666 639.427 905.974 603.273C905.282 567.12 890.919 532.572 865.776 506.584L675.421 719.042Z" fill="url(#paint0_linear_0_3)"/>
<path id="Vector_26" d="M774 181C785.598 181 795 171.598 795 160C795 148.402 785.598 139 774 139C762.402 139 753 148.402 753 160C753 171.598 762.402 181 774 181Z" fill="#00D98B"/>
<path id="Vector_27" d="M143 2.89268e-05C119.034 0.00889996 95.4542 6.03882 74.4261 17.5361C53.3979 29.0333 35.5952 45.6294 22.6529 65.8004C9.71055 85.9713 2.04334 109.071 0.355313 132.977C-1.33271 156.884 3.01255 180.831 12.9921 202.621L189.709 7.81109C174.683 2.62551 158.896 -0.0144757 143 2.89268e-05V2.89268e-05Z" fill="url(#paint1_linear_0_3)"/>
</g>
<g id="second">
<path id="Vector_28" d="M278.976 307L282.464 334.671L285.952 362.342H278.976H272L275.488 334.671L278.976 307Z" fill="#2F2E41"/>
<path id="Vector_29" d="M279 376C286.732 376 293 369.732 293 362C293 354.268 286.732 348 279 348C271.268 348 265 354.268 265 362C265 369.732 271.268 376 279 376Z" fill="#2F2E41"/>
<path id="Vector_30" d="M279.5 505C200.374 505 136 440.626 136 361.5C136 282.374 200.374 218 279.5 218C358.626 218 423 282.374 423 361.5C423 440.626 358.626 505 279.5 505ZM279.5 219C200.925 219 137 282.925 137 361.5C137 440.075 200.925 504 279.5 504C358.075 504 422 440.075 422 361.5C422 282.925 358.075 219 279.5 219Z" fill="black"/>
</g>
<g id="minute">
<path id="Vector_31" d="M370.023 362.548L324.511 364.25L279 365.951L279.025 361.976L279.05 358L324.536 360.274L370.023 362.548Z" fill="#2F2E41"/>
<path id="Vector_32" d="M279 376C286.732 376 293 369.732 293 362C293 354.268 286.732 348 279 348C271.268 348 265 354.268 265 362C265 369.732 271.268 376 279 376Z" fill="#2F2E41"/>
<path id="Vector_33" d="M279.5 505C200.374 505 136 440.626 136 361.5C136 282.374 200.374 218 279.5 218C358.626 218 423 282.374 423 361.5C423 440.626 358.626 505 279.5 505ZM279.5 219C200.925 219 137 282.925 137 361.5C137 440.075 200.925 504 279.5 504C358.075 504 422 440.075 422 361.5C422 282.925 358.075 219 279.5 219Z" fill="black"/>
</g>
</g>
<defs>
<linearGradient id="paint0_linear_0_3" x1="906" y1="732" x2="746.5" y2="561.5" gradientUnits="userSpaceOnUse">
<stop stop-color="#00D1FF"/>
<stop offset="0.818686" stop-color="#00D98B" stop-opacity="0"/>
</linearGradient>
<linearGradient id="paint1_linear_0_3" x1="-17" y1="12" x2="190" y2="173" gradientUnits="userSpaceOnUse">
<stop stop-color="#00D1FF"/>
<stop offset="0.625" stop-color="#00D98B" stop-opacity="0"/>
<stop offset="1" stop-color="#00D1FF" stop-opacity="0"/>
</linearGradient>
<clipPath id="clip0_0_3">
<rect width="906" height="749.524" fill="white"/>
</clipPath>
</defs>
</svg>
